<svg xmlns="http://www.w3.org/2000/svg" viewBox="-41 -41 2129 2129">
  <g fill="none" stroke="black" stroke-width="149" stroke-linejoin="round" stroke-linecap="round">
    <path d="M 1296 168 L 1296 175 L 1295 176 L 1288 176 L 1288 183 L 1287 184 L 1280 184 L 1280 191 L 1279 192 L 1272 192 L 1272 207 L 1271 208 L 1264 208 L 1264 215 L 1263 216 L 1256 216 L 1256 223 L 1255 224 L 1248 224 L 1248 231 L 1247 232 L 1240 232 L 1240 239 L 1239 240 L 1224 240 L 1224 247 L 1223 248 L 1216 248 L 1216 255 L 1215 256 L 1208 256 L 1208 263 L 1207 264 L 1192 264 L 1192 271 L 1191 272 L 1184 272 L 1184 279 L 1183 280 L 1168 280 L 1168 287 L 1167 288 L 1152 288 L 1152 295 L 1151 296 L 1144 296 L 1144 303 L 1143 304 L 1128 304 L 1128 311 L 1127 312 L 1112 312 L 1112 319 L 1111 320 L 1096 320 L 1096 327 L 1095 328 L 1080 328 L 1080 335 L 1079 336 L 1064 336 L 1064 343 L 1063 344 L 1040 344 L 1040 351 L 1039 352 L 1024 352 L 1024 359 L 1023 360 L 1000 360 L 1000 367 L 999 368 L 968 368 L 968 375 L 967 376 L 944 376 L 944 383 L 943 384 L 904 384 L 904 391 L 903 392 L 728 392 L 728 407 L 735 407 L 736 408 L 736 415 L 743 415 L 744 416 L 744 431 L 751 431 L 752 432 L 752 439 L 759 439 L 760 440 L 760 447 L 767 447 L 768 448 L 768 455 L 775 455 L 776 456 L 776 463 L 815 463 L 816 464 L 816 471 L 855 471 L 855 464 L 856 463 L 919 463 L 919 456 L 920 455 L 959 455 L 959 448 L 960 447 L 991 447 L 991 440 L 992 439 L 1015 439 L 1015 432 L 1016 431 L 1039 431 L 1039 424 L 1040 423 L 1063 423 L 1063 416 L 1064 415 L 1079 415 L 1079 408 L 1080 407 L 1103 407 L 1103 400 L 1104 399 L 1119 399 L 1119 392 L 1120 391 L 1135 391 L 1135 384 L 1136 383 L 1151 383 L 1151 376 L 1152 375 L 1167 375 L 1167 368 L 1168 367 L 1183 367 L 1183 360 L 1184 359 L 1199 359 L 1199 352 L 1200 351 L 1207 351 L 1207 344 L 1208 343 L 1223 343 L 1223 336 L 1224 335 L 1239 335 L 1239 328 L 1240 327 L 1247 327 L 1247 320 L 1248 319 L 1255 319 L 1255 312 L 1256 311 L 1271 311 L 1271 304 L 1272 303 L 1279 303 L 1279 296 L 1280 295 L 1287 295 L 1287 288 L 1288 287 L 1295 287 L 1295 280 L 1296 279 L 1303 279 L 1303 272 L 1304 271 L 1311 271 L 1311 256 L 1312 255 L 1319 255 L 1319 248 L 1320 247 L 1327 247 L 1327 216 L 1320 216 L 1319 215 L 1319 200 L 1312 200 L 1311 199 L 1311 192 L 1304 192 L 1303 191 L 1303 168 Z"/>
    <path d="M 0 0 L 0 2047 L 655 2047 L 655 1968 L 656 1967 L 663 1967 L 663 1960 L 664 1959 L 679 1959 L 679 1952 L 680 1951 L 695 1951 L 695 1944 L 696 1943 L 711 1943 L 711 1936 L 712 1935 L 727 1935 L 727 1928 L 728 1927 L 743 1927 L 743 1920 L 744 1919 L 759 1919 L 759 1912 L 760 1911 L 767 1911 L 767 1904 L 768 1903 L 783 1903 L 783 1016 L 784 1015 L 799 1015 L 799 1008 L 800 1007 L 807 1007 L 807 1000 L 808 999 L 831 999 L 831 992 L 832 991 L 839 991 L 839 984 L 840 983 L 847 983 L 847 976 L 848 975 L 855 975 L 855 960 L 856 959 L 863 959 L 863 952 L 864 951 L 871 951 L 871 936 L 872 935 L 879 935 L 879 928 L 880 927 L 887 927 L 887 920 L 888 919 L 895 919 L 895 912 L 896 911 L 903 911 L 903 904 L 904 903 L 911 903 L 911 888 L 904 888 L 903 887 L 903 880 L 888 880 L 887 879 L 887 872 L 872 872 L 871 871 L 871 864 L 856 864 L 855 863 L 855 856 L 848 856 L 847 855 L 847 848 L 832 848 L 831 847 L 831 840 L 816 840 L 815 839 L 815 832 L 800 832 L 799 831 L 799 824 L 792 824 L 791 823 L 791 816 L 784 816 L 783 815 L 783 808 L 776 808 L 775 807 L 775 800 L 768 800 L 767 799 L 767 792 L 760 792 L 759 791 L 759 712 L 760 711 L 879 711 L 879 688 L 880 687 L 887 687 L 887 680 L 888 679 L 903 679 L 903 664 L 904 663 L 911 663 L 911 632 L 912 631 L 919 631 L 919 584 L 912 584 L 911 583 L 911 576 L 896 576 L 895 575 L 895 568 L 880 568 L 879 567 L 879 560 L 864 560 L 863 559 L 863 552 L 848 552 L 847 551 L 847 544 L 840 544 L 839 543 L 839 536 L 824 536 L 823 535 L 823 528 L 816 528 L 815 527 L 815 520 L 808 520 L 807 519 L 807 512 L 800 512 L 799 511 L 799 504 L 784 504 L 783 503 L 783 496 L 776 496 L 775 495 L 775 488 L 768 488 L 767 487 L 767 480 L 760 480 L 759 479 L 759 472 L 752 472 L 751 471 L 751 464 L 744 464 L 743 463 L 743 456 L 736 456 L 735 455 L 735 440 L 728 440 L 727 439 L 727 432 L 720 432 L 719 431 L 719 424 L 712 424 L 711 423 L 711 416 L 704 416 L 703 415 L 703 400 L 696 400 L 695 399 L 695 384 L 688 384 L 687 383 L 687 336 L 688 335 L 695 335 L 695 320 L 696 319 L 703 319 L 703 312 L 704 311 L 711 311 L 711 280 L 712 279 L 719 279 L 719 256 L 720 255 L 727 255 L 727 240 L 728 239 L 735 239 L 735 216 L 736 215 L 743 215 L 743 200 L 744 199 L 751 199 L 751 192 L 752 191 L 759 191 L 759 176 L 760 175 L 767 175 L 767 168 L 768 167 L 775 167 L 775 160 L 776 159 L 783 159 L 783 128 L 784 127 L 791 127 L 791 96 L 792 95 L 799 95 L 799 80 L 800 79 L 807 79 L 807 56 L 808 55 L 815 55 L 815 48 L 816 47 L 823 47 L 823 32 L 824 31 L 831 31 L 831 24 L 832 23 L 855 23 L 855 16 L 856 15 L 911 15 L 911 8 L 912 7 L 1015 7 L 1016 8 L 1016 15 L 1079 15 L 1080 16 L 1080 23 L 1111 23 L 1112 24 L 1112 31 L 1143 31 L 1144 32 L 1144 39 L 1167 39 L 1168 40 L 1168 47 L 1191 47 L 1192 48 L 1192 55 L 1207 55 L 1208 56 L 1208 63 L 1231 63 L 1232 64 L 1232 71 L 1239 71 L 1240 72 L 1240 79 L 1255 79 L 1256 80 L 1256 87 L 1263 87 L 1264 88 L 1264 95 L 1279 95 L 1280 96 L 1280 103 L 1287 103 L 1288 104 L 1288 111 L 1295 111 L 1296 112 L 1296 119 L 1303 119 L 1304 120 L 1304 135 L 1311 135 L 1312 136 L 1312 151 L 1319 151 L 1320 152 L 1320 167 L 1327 167 L 1328 168 L 1328 183 L 1335 183 L 1336 184 L 1336 199 L 1343 199 L 1344 200 L 1344 215 L 1351 215 L 1352 216 L 1352 255 L 1351 256 L 1344 256 L 1344 399 L 1351 399 L 1352 400 L 1352 447 L 1351 448 L 1344 448 L 1344 463 L 1343 464 L 1336 464 L 1336 471 L 1335 472 L 1328 472 L 1328 479 L 1327 480 L 1320 480 L 1320 487 L 1319 488 L 1312 488 L 1312 495 L 1311 496 L 1304 496 L 1304 503 L 1303 504 L 1296 504 L 1296 511 L 1295 512 L 1288 512 L 1288 519 L 1287 520 L 1280 520 L 1280 527 L 1279 528 L 1240 528 L 1240 535 L 1239 536 L 1224 536 L 1224 543 L 1223 544 L 1208 544 L 1208 551 L 1207 552 L 1200 552 L 1200 559 L 1199 560 L 1184 560 L 1184 567 L 1183 568 L 1168 568 L 1168 575 L 1167 576 L 1144 576 L 1144 663 L 1151 663 L 1152 664 L 1152 679 L 1167 679 L 1168 680 L 1168 687 L 1175 687 L 1176 688 L 1176 703 L 1183 703 L 1184 704 L 1184 711 L 1295 711 L 1296 712 L 1296 719 L 1303 719 L 1304 720 L 1304 735 L 1303 736 L 1296 736 L 1296 775 L 1295 776 L 1288 776 L 1288 791 L 1287 792 L 1280 792 L 1280 807 L 1279 808 L 1272 808 L 1272 815 L 1271 816 L 1264 816 L 1264 823 L 1263 824 L 1248 824 L 1248 831 L 1247 832 L 1240 832 L 1240 839 L 1239 840 L 1224 840 L 1224 847 L 1223 848 L 1208 848 L 1208 855 L 1207 856 L 1192 856 L 1192 863 L 1191 864 L 1184 864 L 1184 871 L 1183 872 L 1168 872 L 1168 879 L 1167 880 L 1160 880 L 1160 887 L 1159 888 L 1144 888 L 1144 903 L 1151 903 L 1152 904 L 1152 919 L 1159 919 L 1160 920 L 1160 927 L 1167 927 L 1168 928 L 1168 935 L 1175 935 L 1176 936 L 1176 943 L 1183 943 L 1184 944 L 1184 951 L 1191 951 L 1192 952 L 1192 959 L 1199 959 L 1200 960 L 1200 975 L 1207 975 L 1208 976 L 1208 983 L 1215 983 L 1216 984 L 1216 991 L 1223 991 L 1224 992 L 1224 999 L 1239 999 L 1240 1000 L 1240 1007 L 1255 1007 L 1256 1008 L 1256 1015 L 1263 1015 L 1264 1016 L 1264 1903 L 1279 1903 L 1280 1904 L 1280 1911 L 1295 1911 L 1296 1912 L 1296 1919 L 1311 1919 L 1312 1920 L 1312 1927 L 1327 1927 L 1328 1928 L 1328 1935 L 1343 1935 L 1344 1936 L 1344 1943 L 1351 1943 L 1352 1944 L 1352 1951 L 1375 1951 L 1376 1952 L 1376 1959 L 1383 1959 L 1384 1960 L 1384 1967 L 1391 1967 L 1392 1968 L 1392 2047 L 2047 2047 L 2047 0 Z"/>
  </g>
</svg>
