<svg xmlns="http://www.w3.org/2000/svg" viewBox="-41 -41 2129 2129">
  <g fill="none" stroke="black" stroke-width="149" stroke-linejoin="round" stroke-linecap="round">
    <path d="M 0 0 L 0 2047 L 2047 2047 L 2047 0 L 1256 0 L 1256 7 L 1271 7 L 1272 8 L 1272 15 L 1287 15 L 1288 16 L 1288 23 L 1303 23 L 1304 24 L 1304 31 L 1319 31 L 1320 32 L 1320 39 L 1327 39 L 1328 40 L 1328 47 L 1335 47 L 1336 48 L 1336 55 L 1351 55 L 1352 56 L 1352 63 L 1359 63 L 1360 64 L 1360 71 L 1367 71 L 1368 72 L 1368 79 L 1375 79 L 1376 80 L 1376 87 L 1383 87 L 1384 88 L 1384 95 L 1391 95 L 1392 96 L 1392 103 L 1399 103 L 1400 104 L 1400 111 L 1407 111 L 1408 112 L 1408 119 L 1415 119 L 1416 120 L 1416 127 L 1423 127 L 1424 128 L 1424 135 L 1431 135 L 1432 136 L 1432 143 L 1439 143 L 1440 144 L 1440 151 L 1447 151 L 1448 152 L 1448 167 L 1455 167 L 1456 168 L 1456 175 L 1463 175 L 1464 176 L 1464 183 L 1471 183 L 1472 184 L 1472 199 L 1479 199 L 1480 200 L 1480 207 L 1487 207 L 1488 208 L 1488 215 L 1495 215 L 1496 216 L 1496 231 L 1503 231 L 1504 232 L 1504 239 L 1511 239 L 1512 240 L 1512 255 L 1519 255 L 1520 256 L 1520 271 L 1527 271 L 1528 272 L 1528 279 L 1535 279 L 1536 280 L 1536 295 L 1543 295 L 1544 296 L 1544 311 L 1551 311 L 1552 312 L 1552 327 L 1559 327 L 1560 328 L 1560 343 L 1567 343 L 1568 344 L 1568 359 L 1575 359 L 1576 360 L 1576 375 L 1583 375 L 1584 376 L 1584 391 L 1591 391 L 1592 392 L 1592 407 L 1599 407 L 1600 408 L 1600 431 L 1607 431 L 1608 432 L 1608 455 L 1615 455 L 1616 456 L 1616 479 L 1623 479 L 1624 480 L 1624 503 L 1631 503 L 1632 504 L 1632 535 L 1639 535 L 1640 536 L 1640 575 L 1647 575 L 1648 576 L 1648 703 L 1647 704 L 1640 704 L 1640 727 L 1639 728 L 1632 728 L 1632 743 L 1631 744 L 1624 744 L 1624 751 L 1623 752 L 1616 752 L 1616 759 L 1615 760 L 1608 760 L 1608 767 L 1607 768 L 1600 768 L 1600 775 L 1599 776 L 1584 776 L 1584 783 L 1583 784 L 1528 784 L 1527 783 L 1527 776 L 1504 776 L 1503 775 L 1503 768 L 1480 768 L 1479 767 L 1479 760 L 1472 760 L 1471 759 L 1471 752 L 1456 752 L 1455 751 L 1455 744 L 1440 744 L 1439 743 L 1439 736 L 1432 736 L 1431 735 L 1431 728 L 1424 728 L 1423 727 L 1423 720 L 1408 720 L 1407 719 L 1407 712 L 1400 712 L 1399 711 L 1399 704 L 1392 704 L 1391 703 L 1391 696 L 1384 696 L 1383 695 L 1383 688 L 1376 688 L 1375 687 L 1375 680 L 1368 680 L 1367 679 L 1367 672 L 1360 672 L 1359 671 L 1359 664 L 1352 664 L 1351 663 L 1351 656 L 1344 656 L 1343 655 L 1343 648 L 1336 648 L 1335 647 L 1335 632 L 1328 632 L 1327 631 L 1327 624 L 1320 624 L 1319 623 L 1319 616 L 1312 616 L 1311 615 L 1311 608 L 1304 608 L 1303 607 L 1303 592 L 1296 592 L 1295 591 L 1295 584 L 1288 584 L 1287 583 L 1287 576 L 1280 576 L 1279 575 L 1279 560 L 1272 560 L 1271 559 L 1271 552 L 1264 552 L 1263 551 L 1263 536 L 1256 536 L 1255 535 L 1255 528 L 1248 528 L 1247 527 L 1247 512 L 1240 512 L 1239 511 L 1239 504 L 1232 504 L 1231 503 L 1231 488 L 1224 488 L 1223 487 L 1223 472 L 1216 472 L 1215 471 L 1215 456 L 1208 456 L 1207 455 L 1207 440 L 1200 440 L 1199 439 L 1199 424 L 1192 424 L 1191 423 L 1191 408 L 1184 408 L 1183 407 L 1183 392 L 1176 392 L 1175 391 L 1175 376 L 1168 376 L 1167 375 L 1167 352 L 1160 352 L 1159 351 L 1159 336 L 1152 336 L 1151 335 L 1151 312 L 1144 312 L 1143 311 L 1143 280 L 1136 280 L 1135 279 L 1135 248 L 1128 248 L 1127 247 L 1127 216 L 1120 216 L 1119 215 L 1119 64 L 1120 63 L 1127 63 L 1127 48 L 1128 47 L 1135 47 L 1135 32 L 1136 31 L 1143 31 L 1143 24 L 1144 23 L 1151 23 L 1151 16 L 1152 15 L 1159 15 L 1159 8 L 1160 7 L 1167 7 L 1167 0 Z"/>
  </g>
</svg>
